<svg xmlns="http://www.w3.org/2000/svg" viewBox="0 0 2122 2122" style="enable-background:new 0 0 2122 2122" xml:space="preserve"><path style="fill:#c4c4e4" d="M1060.659 175.654c-508.043 0-919.95 411.849-919.95 919.952 0 280.411 125.456 531.502 323.312 700.211 17.126 14.631 34.831 28.68 53.062 41.976 1.686 1.218 3.367 2.439 5.052 3.601 10.041 7.371 20.258 14.455 30.592 21.364 4.473 2.901 8.945 5.864 13.413 8.709 4.473 2.843 8.882 5.571 13.355 8.358.755.465 1.569.93 2.319 1.393 1.223.755 2.441 1.51 3.659 2.207a147.855 147.855 0 0 0 5.111 3.018h.058c4.877 2.904 9.749 5.805 14.685 8.592a876.827 876.827 0 0 0 36.346 19.681c1.622.813 3.192 1.683 4.819 2.438l.058.058a841.099 841.099 0 0 0 16.253 8.012 766.007 766.007 0 0 0 13.934 6.56c6.499 3.077 13.12 5.981 19.737 8.824.872.406 1.744.814 2.616 1.162.639.29 1.277.524 1.915.814 4.994 2.09 9.925 4.18 14.977 6.212 7.605 3.077 15.269 6.095 22.991 8.882h.058c8.706 3.308 17.418 6.387 26.241 9.347v.058a308.98 308.98 0 0 0 9.578 3.136 610.93 610.93 0 0 0 9.578 3.077l.234.058c3.133 1.045 6.212 1.973 9.344 2.901a280.8 280.8 0 0 0 9.813 2.963c6.329 1.856 12.716 3.598 19.157 5.281a913.357 913.357 0 0 0 120.35 23.63h.117c38.373 4.935 77.506 7.43 117.213 7.43 61.018 0 120.643-5.919 178.348-17.357 8.361-1.627 16.663-3.425 24.965-5.283a584.216 584.216 0 0 0 22.699-5.342c10.393-2.612 20.726-5.457 31.001-8.417 2.962-.872 5.866-1.742 8.828-2.614a598.332 598.332 0 0 0 11.031-3.367c2.787-.87 5.569-1.8 8.361-2.729 1.335-.407 2.67-.872 4.005-1.335 1.452-.407 2.904-.928 4.292-1.393 1.048-.349 2.149-.697 3.196-1.104 3.888-1.335 7.78-2.67 11.668-4.063 4.526-1.569 9.058-3.252 13.584-4.935l2.266-.87c8.824-3.31 17.593-6.735 26.3-10.451h.058a232.839 232.839 0 0 0 7.951-3.308 789.853 789.853 0 0 0 16.083-6.967l.117-.059c.984-.407 1.973-.814 2.904-1.276a919.566 919.566 0 0 0 25.194-11.844 894.903 894.903 0 0 0 40.584-21.016v-.058l.926-.524c9.637-5.34 19.215-10.855 28.624-16.604a900.576 900.576 0 0 0 23.63-14.628 737.702 737.702 0 0 0 14.046-9.233c8.999-5.919 17.881-12.131 26.65-18.46 15.035-10.799 29.783-22.061 44.122-33.788a942.72 942.72 0 0 0 34.83-29.959c186.475-168.302 303.693-411.963 303.693-682.969.002-508.104-411.847-919.952-919.953-919.952z"/><path style="fill:#f49b7f" d="M1512.917 1607.891c-49.349-17.184-102.874-14.977-155.128-18.46-2.67-.176-5.398-.349-8.068-.58-54.806-4.356-113.617-19.681-146.938-63.34-10.163-13.296-17.189-28.39-21.715-44.355-.488-1.702-.881-3.439-1.315-5.162-.381-1.522-.81-3.028-1.148-4.563-.246-1.119-.427-2.256-.653-3.382-.441-2.21-.892-4.418-1.251-6.65-.218-1.358-.368-2.731-.557-4.096-.264-1.909-.542-3.814-.75-5.734a193.06 193.06 0 0 1-.772-9.367c-.003-.03-.003-.061-.004-.092 51.68-27.604 97.231-65.622 130.366-113.842 34.103-49.627 53.527-106.775 65.964-166.051 20.767 4.771 45.335 2.253 67.898-6.087 67.693-25.018 122.367-82.896 143.493-151.905 7.79-25.451 11.177-53.013 4.098-78.674-7.074-25.662-25.993-49.011-51.562-56.411-6.273-1.816-12.665-2.637-19.086-2.658 15.755-69.34 21.444-140.957 2-208.682-25.233-87.888-103.001-165.999-194.441-165.71-24.799-57.228-69.427-105.635-124.453-134.994-63.196-33.715-137.213-41.844-208.76-38.456-29.452 1.393-58.976 4.662-87.323 12.779-61.193 17.522-114.031 56.838-159.381 101.503-90.416 89.043-158.528 212.136-144.151 338.219 12.067-26.52 28.031-51.235 47.101-73.26-11.231 32.986-12.271 74.562-11.73 99.304 1.296 59.035 18.621 116.984 44.633 169.997 5.247 10.698 11.226 21.523 18.918 30.527-.01 9.595.003 19.083.01 28.401.044 63.252.088 126.504.137 189.756.029 44.989.258 91.113 16.083 133.23 22.305 59.383 74.582 104.655 133.934 127.047 16.497 6.224 33.499 10.761 50.777 13.918.003.012.003.024.004.036a304.274 304.274 0 0 1 1.316 18.698l.011.251c.058 1.606.093 3.206.121 4.807.018 1.043.029 2.083.034 3.123a217.06 217.06 0 0 1-.003 4.115c-.03 2.239-.085 4.471-.185 6.689-.044.99-.117 1.97-.175 2.955a192.237 192.237 0 0 1-.336 4.72 192.71 192.71 0 0 1-.285 3.074 164.82 164.82 0 0 1-.658 5.467c-.102.743-.19 1.489-.302 2.228a145.832 145.832 0 0 1-1.158 6.573c-.173.864-.362 1.719-.549 2.576a127.826 127.826 0 0 1-1.181 4.931c-.198.764-.385 1.535-.598 2.292a115.833 115.833 0 0 1-2.053 6.573c-.224.646-.478 1.275-.714 1.915a102.962 102.962 0 0 1-1.945 4.907c-.305.712-.608 1.422-.928 2.125-.938 2.06-1.922 4.094-3.001 6.074-.044.081-.082.166-.126.247-5.398 9.871-12.594 18.694-22.002 26.01-22.29 17.474-50.568 21.191-79.245 24.789-19.854 2.497-39.825 4.994-58.115 11.961-46.733 17.649-77.447 62.699-97.534 108.39-18.343 41.858-30.129 85.98-38.894 130.857 4.877 2.904 9.749 5.805 14.685 8.592a876.827 876.827 0 0 0 36.346 19.681c1.622.813 3.192 1.683 4.819 2.438l.058.058a841.099 841.099 0 0 0 16.253 8.012 766.007 766.007 0 0 0 13.934 6.56c6.499 3.077 13.12 5.981 19.737 8.824.872.406 1.744.814 2.616 1.162.639.29 1.277.524 1.915.814 4.994 2.09 9.925 4.18 14.977 6.212 7.605 3.077 15.269 6.095 22.991 8.882h.058c8.706 3.308 17.418 6.387 26.241 9.347v.058a308.98 308.98 0 0 0 9.578 3.136 610.93 610.93 0 0 0 9.578 3.077l.234.058c3.133 1.045 6.212 1.973 9.344 2.901a280.8 280.8 0 0 0 9.813 2.963c6.329 1.856 12.716 3.598 19.157 5.281a913.357 913.357 0 0 0 120.35 23.63h.117c38.373 4.935 77.506 7.43 117.213 7.43 61.018 0 120.643-5.919 178.348-17.357 8.361-1.627 16.663-3.425 24.965-5.283a584.216 584.216 0 0 0 22.699-5.342c10.393-2.612 20.726-5.457 31.001-8.417 2.962-.872 5.866-1.742 8.828-2.614a598.332 598.332 0 0 0 11.031-3.367c2.787-.87 5.569-1.8 8.361-2.729 1.335-.407 2.67-.872 4.005-1.335 1.452-.407 2.904-.928 4.292-1.393 1.048-.349 2.149-.697 3.196-1.104 3.888-1.335 7.78-2.67 11.668-4.063 4.526-1.569 9.058-3.252 13.584-4.935l2.266-.87c8.824-3.31 17.593-6.735 26.3-10.451h.058a232.839 232.839 0 0 0 7.951-3.308 789.853 789.853 0 0 0 16.083-6.967l.117-.059c.984-.407 1.973-.814 2.904-1.276a919.566 919.566 0 0 0 25.194-11.844 894.903 894.903 0 0 0 40.584-21.016v-.058l.926-.524c9.637-5.34 19.215-10.855 28.624-16.604a900.576 900.576 0 0 0 23.63-14.628 737.702 737.702 0 0 0 14.046-9.233c8.999-5.919 17.881-12.131 26.65-18.46 15.035-10.799 29.783-22.061 44.122-33.788a942.72 942.72 0 0 0 34.83-29.959c-33.845-74.311-87.369-143.862-164.002-170.685z"/><path style="fill:#fff" d="m1147.412 1046.408-.288-.254-.039-.036c-14.046-13.722-33.622-21.272-53.237-22.031-33.408-1.228-66.743 17.807-82.675 47.206-5.778 10.692-9.388 22.935-8.014 34.999 3.215 27.92 31.42 44.1 56.38 39.513 18.236-3.36 38.679.794 57.749-.47 9.968-.648 19.576-2.816 28.282-8.304 12.463-7.839 20.083-22.141 21.744-36.807 2.202-19.685-5.778-39.948-19.902-53.816z"/><path style="fill:#ee745a" d="M908.035 1586.529c100.263 6.141 203.703-32.144 273.013-105.391-.484-1.697-.865-3.428-1.295-5.145-.381-1.522-.81-3.028-1.148-4.563-.246-1.119-.427-2.256-.653-3.382-.441-2.21-.892-4.418-1.251-6.65-.218-1.358-.368-2.731-.557-4.096-.264-1.909-.542-3.814-.75-5.734a208.07 208.07 0 0 1-.782-9.456c-43.121 23.032-90.492 38.838-138.616 47.032-45.147 7.685-91.953 9.114-136.83.92.616 6.244 1.066 12.5 1.298 18.73l.011.251c.058 1.606.093 3.206.121 4.807.018 1.043.029 2.083.034 3.123a217.06 217.06 0 0 1-.003 4.115c-.03 2.239-.085 4.471-.185 6.689-.044.99-.117 1.97-.175 2.955a192.237 192.237 0 0 1-.336 4.72 192.71 192.71 0 0 1-.285 3.074 164.82 164.82 0 0 1-.658 5.467c-.102.743-.19 1.489-.302 2.228a145.832 145.832 0 0 1-1.158 6.573c-.173.864-.362 1.719-.549 2.576a127.826 127.826 0 0 1-1.181 4.931c-.198.764-.385 1.535-.598 2.292a115.833 115.833 0 0 1-2.053 6.573c-.224.646-.478 1.275-.714 1.915a102.962 102.962 0 0 1-1.945 4.907c-.305.712-.608 1.422-.928 2.125-.938 2.06-1.922 4.094-3.001 6.074-.043.08-.077.165-.121.244 7.873 1.012 15.205 1.699 21.597 2.096z"/><path style="fill:#873e39" d="M776.883 850.783c5.135-62.015 40.219-120.865 92.327-154.88-.22 47.998 25.398 93.257 59.809 126.716 34.417 33.459 77.164 56.841 119.644 79.191-19.873-71.201 8.019-153.257 67.167-197.598.814 82.061 43.649 161.601 106.222 214.694-3.113-43.283 7.829-87.469 30.782-124.299 49.885 93.654 52.745 210.918 7.484 306.894 26.079-2.568 47.563-18.63 65.887-38.23 14.754-75.9 64.8-144.706 133.451-180.637 17.356-9.083 36.876-16.218 56.134-16.156 15.755-69.34 21.444-140.957 2-208.682-25.233-87.888-103.001-165.999-194.441-165.71-24.799-57.228-69.427-105.635-124.453-134.994-63.196-33.715-137.213-41.844-208.76-38.456-29.452 1.393-58.976 4.662-87.323 12.779-61.193 17.522-114.031 56.838-159.381 101.503-90.416 89.043-158.528 212.136-144.151 338.219 12.067-26.52 28.031-51.235 47.101-73.26-11.231 32.986-12.271 74.562-11.73 99.304 1.296 59.035 18.621 116.984 44.633 169.997 5.247 10.698 11.226 21.523 18.918 30.527.058-64.002 1.172-133.449 12.831-198.987 19.506 20.001 42.384 36.744 65.849 52.065z"/><path style="fill:#fff" d="M865.117 1044.673c-4.083-4.044-8.633-7.51-13.511-10.473-11.99-7.296-26.002-11.306-40.092-11.81-33.369-1.264-66.743 17.769-82.636 47.169-5.778 10.692-9.427 22.933-8.019 35.033 3.215 27.92 31.425 44.1 56.38 39.479 26.982-4.95 58.801 6.499 83.756-7.442l.146-.071a41.488 41.488 0 0 0 2.095-1.228c12.463-7.876 20.083-22.178 21.744-36.804 2.237-19.684-5.778-39.946-19.863-53.853z"/><path style="fill:#ee745a" d="M1371.484 1086.644c.726 10.67 16.721 14.09 19.508 2.641 9.536-39.124 16.458-73.32 46.945-102.804 17.771 4.09 35.427 5.996 41.04 28.037 5.837 22.921-12.896 36.704-27.8 50.066-2.485 2.227-1.145 6.546 1.939 7.357 34.836 9.142 56.283-34.227 48.609-63.695-4.253-16.326-20.984-34.461-39.123-40.619 23.949-14.362 50.452-20.88 78.558-29.52 4.2-1.291 4.818-8.188 0-9.142-81.988-16.284-175.191 76.717-169.676 157.679zM972.523 1251.872c7.362-2.989 9.91-15.8 0-17.632-21.418-3.956-45.886 1.52-64.823-11.63-29.612-20.565-.989-56.356 9.096-80.424 17.13-40.887 29.959-87.486 26.13-132.032-.229-2.655-4.132-3.53-4.877-.66-8.336 32.18-14.202 64.411-26.1 95.642-6.421 16.847-14.027 33.035-22.704 48.823-7.245 13.187-16.054 25.929-17.91 41.218-6.364 52.485 61.489 72.807 101.188 56.695z"/><path style="fill:#873e39" d="M1010.13 1004.33c30.533-4.621 55.162-15.135 87.352-11.101 20.171 2.526 39.844 8.526 60.117 9.964 9.617.68 21.086-.68 25.788-9.096 3.206-5.741 1.968-13.155-1.496-18.743-16.424-26.485-50.505-42.553-80.365-47.776-35.274-6.173-80.517.492-105.632 28.324-15.425 17.095-16.648 53.103 14.236 48.428zM742.969 994.196c16.886-1.145 33.247-6.361 50.036-8.478 26.802-3.381 47.396 6.151 72.872 10.473 25.778 4.372 24.517-27.723 11.547-43.062-21.12-24.972-58.87-31.21-88.229-25.947-24.848 4.458-53.145 18.551-66.655 42.042-2.855 4.96-3.83 11.557-1.121 16.694 3.971 7.533 13.54 8.819 21.55 8.278zM915.11 1353.699c41.583 3.766 85.603-5.611 123.566-22.322a299.245 299.245 0 0 0 57.783-33.61c10.614-7.876 22.828-15.873 30.533-26.697 7.84 7.694 16.825 13.538 27.556 17.625 7.932 3.018 10.933-8.292 5.301-12.573-10.772-8.19-20.38-17.975-27.586-29.442-5.89-9.379-7.868-20.409-19.011-24.736-1.705-.662-3.328.494-4.297 1.749-7.951 10.295-.434 24.087 6.66 33.939-10.33 6.58-18.716 16.39-28.687 23.829-15.781 11.778-32.862 21.868-50.714 30.17-39.05 18.163-78.573 25.876-121.106 30.1-7.657.764-7.721 11.266.002 11.968z"/><path style="fill:#5c97c1" d="m1147.124 1046.154-.039-.036c-6.032-3.323-12.818-5.201-19.971-5.201-25.466 0-46.051 23.659-46.051 52.843 0 25.281 15.493 46.446 36.224 51.574 9.968-.648 19.576-2.816 28.282-8.304 12.463-7.839 20.083-22.141 21.744-36.807 2.202-19.683-5.778-39.946-19.902-53.815l-.287-.254zM884.981 1098.527c2.236-19.686-5.778-39.947-19.863-53.854-4.083-4.044-8.633-7.51-13.511-10.473a39.25 39.25 0 0 0-5.49-.397c-25.428 0-46.051 23.656-46.051 52.84 0 29.182 20.624 52.84 46.051 52.84a40.374 40.374 0 0 0 14.879-2.855l.146-.071a41.488 41.488 0 0 0 2.095-1.228c12.462-7.874 20.082-22.176 21.744-36.802z"/><path style="fill:#307f7c" d="M1512.917 1607.891c-49.349-17.184-102.874-14.977-155.128-18.46-35.82 70.828-98.402 128.477-173.179 155.588-42.728 15.444-91.961 23.571-120.526 58.811-15.323 18.811-23.22 44.066-42.845 58.404-24.614-7.371-30.826-41.276-53.062-54.224-7.839-4.587-17.067-6.095-25.891-8.127-78.319-18.056-140.497-86.736-157.101-164.648-19.854 2.497-39.825 4.994-58.115 11.961-46.733 17.649-77.447 62.699-97.534 108.39-18.343 41.858-30.129 85.98-38.894 130.857 4.877 2.904 9.749 5.805 14.685 8.592a876.827 876.827 0 0 0 36.346 19.681c1.622.813 3.192 1.683 4.819 2.438l.058.058a841.099 841.099 0 0 0 16.253 8.012 766.007 766.007 0 0 0 13.934 6.56c6.499 3.077 13.12 5.981 19.737 8.824.872.406 1.744.814 2.616 1.162.639.29 1.277.524 1.915.814 4.994 2.09 9.925 4.18 14.977 6.212 7.605 3.077 15.269 6.095 22.991 8.882h.058c8.706 3.308 17.418 6.387 26.241 9.347v.058a308.98 308.98 0 0 0 9.578 3.136 610.93 610.93 0 0 0 9.578 3.077l.234.058c3.133 1.045 6.212 1.973 9.344 2.901a280.8 280.8 0 0 0 9.813 2.963c6.329 1.856 12.716 3.598 19.157 5.281a913.357 913.357 0 0 0 120.35 23.63h.117c38.373 4.935 77.506 7.43 117.213 7.43 61.018 0 120.643-5.919 178.348-17.357 8.361-1.627 16.663-3.425 24.965-5.283a584.216 584.216 0 0 0 22.699-5.342c10.393-2.612 20.726-5.457 31.001-8.417 2.962-.872 5.866-1.742 8.828-2.614a598.332 598.332 0 0 0 11.031-3.367c2.787-.87 5.569-1.8 8.361-2.729 1.335-.407 2.67-.872 4.005-1.335 1.452-.407 2.904-.928 4.292-1.393 1.048-.349 2.149-.697 3.196-1.104 3.888-1.335 7.78-2.67 11.668-4.063 4.526-1.569 9.058-3.252 13.584-4.935l2.266-.87c8.824-3.31 17.593-6.735 26.3-10.451h.058a232.839 232.839 0 0 0 7.951-3.308 789.853 789.853 0 0 0 16.083-6.967l.117-.059c.984-.407 1.973-.814 2.904-1.276a919.566 919.566 0 0 0 25.194-11.844 894.903 894.903 0 0 0 40.584-21.016v-.058l.926-.524c9.637-5.34 19.215-10.855 28.624-16.604a900.576 900.576 0 0 0 23.63-14.628 737.702 737.702 0 0 0 14.046-9.233c8.999-5.919 17.881-12.131 26.65-18.46 15.035-10.799 29.783-22.061 44.122-33.788a942.72 942.72 0 0 0 34.83-29.959c-33.845-74.31-87.369-143.861-164.002-170.684z"/></svg>